<svg width="24" height="24" viewBox="0 0 24 24" fill="none" xmlns="http://www.w3.org/2000/svg">
<path d="M11.9333 5.83561L9.3281 15.5448C9.04172 16.6122 9.67521 17.7094 10.7427 17.9951L15.9312 19.3837C16.998 19.6692 18.0943 19.0361 18.3801 17.9694L20.9815 8.2608C21.2674 7.19387 20.6343 6.0972 19.5673 5.81132L14.3826 4.42206C13.3159 4.13625 12.2194 4.76904 11.9333 5.83561Z" fill="#FDFBF5" stroke="#1F1F1F" stroke-width="2"/>
<path d="M7.87334 5.73237L7.86928 17.5417C7.8689 18.6468 8.76481 19.5427 9.86988 19.5424L16.4125 19.5404C17.5168 19.5401 18.4119 18.6448 18.4119 17.5404V5.73306C18.4119 4.62849 17.5164 3.73306 16.4119 3.73306H9.87334C8.76904 3.73306 7.87372 4.62807 7.87334 5.73237Z" fill="#FDFBF5" stroke="#1F1F1F" stroke-width="2"/>
<path d="M3.52264 6.96181L7.02926 20.0667C7.3149 21.1343 8.41217 21.7678 9.4795 21.4815L16.9301 19.4827C17.9967 19.1966 18.6296 18.1001 18.3438 17.0334L14.8332 3.93186C14.5473 2.86493 13.4507 2.23176 12.3837 2.51765L4.93703 4.51299C3.87035 4.7988 3.23719 5.89504 3.52264 6.96181Z" fill="#FDFBF5" stroke="#1F1F1F" stroke-width="2"/>
<path d="M10.4638 16.1416L10.4646 16.1417C10.9972 16.2109 11.5563 16.1714 12.1406 16.026C12.7564 15.8727 13.267 15.6341 13.6659 15.3056L13.6659 15.3056L13.6675 15.3042C14.0612 14.9705 14.3302 14.5865 14.4657 14.1515C14.6001 13.7201 14.6049 13.2858 14.4799 12.8523C14.337 12.3571 14.0901 11.9751 13.7314 11.722C13.3887 11.4801 13.0167 11.3257 12.6166 11.2605C12.2308 11.1977 11.7494 11.1602 11.1743 11.1473C10.7571 11.1358 10.4317 11.1176 10.1966 11.093C9.97775 11.0607 9.78527 11.0017 9.6176 10.9179C9.47425 10.8351 9.38076 10.7153 9.33329 10.5508C9.25952 10.295 9.29015 10.1018 9.39938 9.94949C9.52395 9.78475 9.72446 9.65985 10.0202 9.58625C10.3631 9.50088 10.6444 9.51779 10.8743 9.62009L10.8742 9.62018L10.8793 9.62221C11.0507 9.69117 11.1736 9.78928 11.2566 9.91363C11.3504 10.054 11.5325 10.1753 11.7387 10.1239L13.045 9.79876C13.2721 9.74223 13.4179 9.49077 13.3039 9.26114C13.0252 8.69991 12.5895 8.30433 12.0027 8.07933C11.3342 7.81159 10.5643 7.79234 9.70139 8.00713C9.12534 8.15052 8.63391 8.37235 8.23109 8.67578C7.82517 8.97272 7.53951 9.33284 7.38256 9.75684C7.22473 10.1832 7.21782 10.6371 7.35502 11.1127C7.49949 11.6136 7.74257 11.9999 8.09307 12.2555L8.09304 12.2556L8.09644 12.2579C8.4363 12.4917 8.80235 12.6431 9.19361 12.7102L9.1936 12.7102L9.19753 12.7108C9.58026 12.7661 10.0598 12.7998 10.6345 12.8128L10.6345 12.8128L10.6363 12.8128C11.0524 12.8171 11.3763 12.8355 11.6106 12.8668L11.6106 12.8669L11.6165 12.8675C11.8472 12.8892 12.0454 12.9495 12.2141 13.0454C12.3673 13.1325 12.4711 13.2652 12.5258 13.4548C12.5922 13.685 12.5563 13.8877 12.4171 14.0772C12.2745 14.2614 12.0343 14.4056 11.6731 14.4955C11.3234 14.5826 11.0387 14.5632 10.808 14.4555C10.6367 14.3713 10.5026 14.244 10.4039 14.0693C10.3155 13.9128 10.1291 13.7981 9.92649 13.8485L8.64712 14.1669C8.42974 14.2211 8.28265 14.4558 8.37992 14.6829C8.53858 15.0534 8.77673 15.3596 9.09336 15.5988C9.47914 15.8902 9.93745 16.0701 10.4638 16.1416Z" fill="#1F1F1F" stroke="#1F1F1F" stroke-width="0.3"/>
</svg>
